simulation
nRows=30
nColumns=15
endheader
time  TH_x TH_y TH_z SC_y  SC_z  SC_x  AC_y  AC_z  AC_x  GH_y  GH_z  GH_yy  EL_x  PS_y
0.750000  0.000000  0.000000  0.000000  -11.908789  -7.191129  -1.465982  65.022109  14.362267  -7.630283  20.338052  36.689368  -44.516953  17.204223  86.079317
0.750561  0.000000  0.000000  0.000000  -11.908789  -7.191129  2.819732  65.417783  10.470825  -9.469257  20.338052  36.689368  -44.516953  17.204223  86.079317
0.751121  0.000000  0.000000  0.000000  -11.908789  -7.191129  7.105447  65.683632  6.569097  -11.262505  20.338052  36.689368  -44.516953  17.204223  86.079317
0.751682  0.000000  0.000000  0.000000  -11.908789  -7.191129  11.391161  65.825764  2.661089  -13.027791  20.338052  36.689368  -44.516953  17.204223  86.079317
0.752242  0.000000  0.000000  0.000000  -11.908789  -7.191129  15.676875  65.847387  -1.249421  -14.781901  20.338052  36.689368  -44.516953  17.204223  86.079317
0.752803  0.000000  0.000000  0.000000  -11.908789  -7.191129  19.962589  65.748987  -5.158760  -16.541248  20.338052  36.689368  -44.516953  17.204223  86.079317
0.753363  0.000000  0.000000  0.000000  -11.908789  -7.191129  24.248304  65.528347  -9.063200  -18.322420  20.338052  36.689368  -44.516953  17.204223  86.079317
0.753924  0.000000  0.000000  0.000000  -11.908789  -7.191129  28.534018  65.180440  -12.958839  -20.142752  20.338052  36.689368  -44.516953  17.204223  86.079317
0.754484  0.000000  0.000000  0.000000  -11.908789  -7.191129  32.819732  64.697175  -16.841437  -22.020931  20.338052  36.689368  -44.516953  17.204223  86.079317
0.755045  0.000000  0.000000  0.000000  -11.908789  -7.191129  37.105447  64.067007  -20.706250  -23.977700  20.338052  36.689368  -44.516953  17.204223  86.079317
0.755605  0.000000  0.000000  0.000000  -11.908789  -7.191129  41.391161  63.274334  -24.547806  -26.036684  20.338052  36.689368  -44.516953  17.204223  86.079317
0.756166  0.000000  0.000000  0.000000  -11.908789  -7.191129  45.676875  62.298681  -28.359639  -28.225410  20.338052  36.689368  -44.516953  17.204223  86.079317
0.756726  0.000000  0.000000  0.000000  -27.350872  -6.236234  -15.024045  60.532589  15.404563  -0.722814  18.124510  39.665709  -41.344088  27.673525  84.589704
0.757287  0.000000  0.000000  0.000000  -27.350872  -6.236234  -10.738330  61.036348  11.663584  -2.874027  18.124510  39.665709  -41.344088  27.673525  84.589704
0.757848  0.000000  0.000000  0.000000  -27.350872  -6.236234  -6.452616  61.392444  7.907036  -4.967828  18.124510  39.665709  -41.344088  27.673525  84.589704
0.758408  0.000000  0.000000  0.000000  -27.350872  -6.236234  -2.166902  61.608323  4.140262  -7.023763  18.124510  39.665709  -41.344088  27.673525  84.589704
0.758969  0.000000  0.000000  0.000000  -27.350872  -6.236234  2.118812  61.688473  0.368221  -9.060176  18.124510  39.665709  -41.344088  27.673525  84.589704
0.759529  0.000000  0.000000  0.000000  -27.350872  -6.236234  6.404527  61.634534  -3.404282  -11.094863  18.124510  39.665709  -41.344088  27.673525  84.589704
0.760090  0.000000  0.000000  0.000000  -27.350872  -6.236234  10.690241  61.445404  -7.172471  -13.145565  18.124510  39.665709  -41.344088  27.673525  84.589704
0.760650  0.000000  0.000000  0.000000  -27.350872  -6.236234  14.975955  61.117171  -10.931417  -15.230491  18.124510  39.665709  -41.344088  27.673525  84.589704
0.761211  0.000000  0.000000  0.000000  -27.350872  -6.236234  19.261670  60.642973  -14.675875  -17.368894  18.124510  39.665709  -41.344088  27.673525  84.589704
0.761771  0.000000  0.000000  0.000000  -27.350872  -6.236234  23.547384  60.012703  -18.400094  -19.581656  18.124510  39.665709  -41.344088  27.673525  84.589704
0.762332  0.000000  0.000000  0.000000  -27.350872  -6.236234  27.833098  59.212592  -22.097592  -21.891978  18.124510  39.665709  -41.344088  27.673525  84.589704
0.762892  0.000000  0.000000  0.000000  -27.350872  -6.236234  32.118812  58.224637  -25.760878  -24.326175  18.124510  39.665709  -41.344088  27.673525  84.589704
0.763453  0.000000  0.000000  0.000000  -27.350872  -6.236234  36.404527  57.025845  -29.381116  -26.914591  18.124510  39.665709  -41.344088  27.673525  84.589704
0.764013  0.000000  0.000000  0.000000  -27.350872  -6.236234  40.690241  55.587287  -32.947698  -29.692688  18.124510  39.665709  -41.344088  27.673525  84.589704
0.764574  0.000000  0.000000  0.000000  -27.350872  -6.236234  44.975955  53.873019  -36.447659  -32.702270  18.124510  39.665709  -41.344088  27.673525  84.589704
0.765135  0.000000  0.000000  0.000000  -12.569865  9.984821  -15.024045  58.924701  29.137851  8.635699  28.860019  18.879959  -22.898798  13.628348  97.644474
0.765695  0.000000  0.000000  0.000000  -12.569865  9.984821  -10.738330  60.047971  25.445052  6.187474  28.860019  18.879959  -22.898798  13.628348  97.644474
0.766256  0.000000  0.000000  0.000000  -12.569865  9.984821  -6.452616  60.969281  21.714097  3.885822  28.860019  18.879959  -22.898798  13.628348  97.644474
